<svg width="200" height="39" viewBox="0 0 200 39" fill="none" xmlns="http://www.w3.org/2000/svg">
<path d="M62.345 19.4748C62.3608 19.5272 62.3799 19.5785 62.402 19.6286C62.4101 19.673 62.4101 19.7186 62.402 19.7631C62.402 19.9041 62.2689 20.0483 62.0026 20.1957C61.7029 20.3613 61.3833 20.4873 61.0517 20.5705C60.6618 20.6667 60.2338 20.7532 59.7774 20.8205C59.3557 20.8864 58.9298 20.9217 58.5031 20.9262C57.6389 20.9457 56.7785 20.8056 55.964 20.5129C55.3288 20.2702 54.7448 19.9081 54.2428 19.4459C53.7926 19.0309 53.422 18.5357 53.1492 17.985C52.8934 17.4731 52.6925 16.935 52.5501 16.3798C52.4198 15.8896 52.3402 15.3872 52.3124 14.8804C52.3124 14.4094 52.3124 14.0154 52.3124 13.7174C52.2603 12.3735 52.4904 11.0337 52.9875 9.7862C53.3619 8.88055 53.934 8.07226 54.6612 7.42177C55.2763 6.87061 56.0083 6.46941 56.8009 6.24911C57.4984 6.05561 58.2173 5.95226 58.9405 5.94153C59.2353 5.94153 59.5777 5.94154 59.9771 6.00882C60.3568 6.05413 60.7322 6.13128 61.0992 6.23949C61.4337 6.31816 61.7543 6.44782 62.0502 6.62398C62.1564 6.66965 62.2481 6.74408 62.3153 6.83905C62.3824 6.93401 62.4223 7.04583 62.4306 7.16223V11.0069C62.4306 11.2184 62.383 11.3337 62.2879 11.3722H62.0407H60.0151H59.7584C59.6728 11.3722 59.6157 11.2184 59.6157 11.0069V8.91156C59.3632 8.83294 59.1002 8.79404 58.8359 8.79623C58.4633 8.79327 58.0942 8.86853 57.7518 9.01728C57.4085 9.19573 57.1193 9.46475 56.915 9.79582C56.646 10.2441 56.4532 10.7346 56.3444 11.2472C56.1952 12.0001 56.125 12.7669 56.1352 13.5348C56.1352 13.9289 56.1352 14.3902 56.1352 14.9092C56.156 15.4202 56.2621 15.9239 56.449 16.399C56.6221 16.8728 56.9177 17.291 57.3049 17.6101C57.7886 17.9751 58.3859 18.1525 58.9881 18.11C59.4109 18.1154 59.8319 18.0505 60.2339 17.9177C60.5053 17.8332 60.772 17.7337 61.0326 17.6197C61.1215 17.5974 61.2076 17.5651 61.2894 17.5236C61.3426 17.5109 61.3979 17.5109 61.4511 17.5236C61.4806 17.5205 61.5104 17.5241 61.5384 17.534C61.5663 17.544 61.5917 17.5601 61.6127 17.5813C61.6127 17.6293 61.6127 17.6486 61.6127 17.6678L62.345 19.4748Z" fill="#EE7624"></path>
<path d="M92.8231 20.013C92.8329 20.1025 92.8329 20.1928 92.8231 20.2822C92.8231 20.3687 92.6804 20.4167 92.4617 20.4167H88.9717C88.8573 20.4272 88.7424 20.4037 88.641 20.3491C88.5396 20.2944 88.4563 20.211 88.4012 20.1091C88.2817 19.8767 88.1983 19.6271 88.1539 19.3691C88.1539 19.321 88.1539 19.2921 88.1539 19.2729C88.1516 19.2441 88.1516 19.2152 88.1539 19.1864C87.6766 19.7079 87.1176 20.1462 86.4992 20.484C85.8828 20.7714 85.2095 20.9127 84.5308 20.8973C84.0084 20.8941 83.4893 20.8132 82.9902 20.657C82.4934 20.4953 82.034 20.2338 81.6398 19.8881C81.2322 19.5088 80.9082 19.0471 80.6889 18.5329C80.4348 17.8916 80.3118 17.2049 80.3275 16.5144C80.3031 15.7346 80.4732 14.9612 80.822 14.2653C81.1472 13.6565 81.6263 13.1457 82.2104 12.785C82.8798 12.3712 83.6228 12.0937 84.3976 11.9681C85.3399 11.8046 86.2944 11.7242 87.2505 11.7278H87.6499V10.8531C87.6499 10.6608 87.6499 10.4494 87.6499 10.1995C87.6227 9.96324 87.5585 9.73291 87.4597 9.51709C87.3374 9.29011 87.1567 9.1008 86.9367 8.96921C86.6162 8.80519 86.2588 8.72898 85.9001 8.74816C85.3356 8.74664 84.7732 8.81766 84.2264 8.95959C83.7129 9.10377 83.323 9.2191 83.0662 9.31522L82.5242 9.53627C82.4177 9.57703 82.3052 9.59977 82.1914 9.60356C82.152 9.60402 82.1132 9.59462 82.0784 9.57616C82.0435 9.55771 82.0137 9.5308 81.9917 9.49785C81.9593 9.4389 81.9307 9.37789 81.9061 9.31522L81.345 7.58513L81.288 7.39288C81.2723 7.3565 81.2642 7.31724 81.2642 7.27755C81.2642 7.23785 81.2723 7.19859 81.288 7.16221C81.3167 7.06495 81.377 6.98031 81.4591 6.92192C81.5934 6.80356 81.7529 6.71804 81.9251 6.67201C82.2295 6.56628 82.781 6.41251 83.5703 6.21067C84.544 5.99192 85.54 5.89189 86.5373 5.91271C87.3619 5.87271 88.184 6.03425 88.9337 6.38367C89.4731 6.65035 89.9423 7.0423 90.3031 7.52746C90.6124 7.96891 90.8203 8.4746 90.9116 9.00764C91.0026 9.49254 91.0503 9.98474 91.0543 10.4783V15.3898C91.0543 15.7454 91.0543 16.0434 91.0543 16.2645C91.0374 16.4595 91.0374 16.6557 91.0543 16.8508C91.0543 17.0046 91.1114 17.1488 91.1399 17.2737C91.1685 17.3987 91.2065 17.5332 91.235 17.6582V17.7735H92.4427C92.6424 17.7735 92.766 17.7735 92.7946 17.9177C92.8084 18.0036 92.8084 18.0913 92.7946 18.1772L92.8231 20.013ZM87.5738 14.0538H87.4026C86.9937 14.0538 86.5278 14.0538 86.0238 14.1114C85.5328 14.1474 85.0556 14.2918 84.6258 14.5344C84.3442 14.7098 84.1014 14.9422 83.9126 15.2168C83.7022 15.5454 83.5961 15.931 83.6083 16.3221C83.5993 16.5779 83.6409 16.833 83.7307 17.0723C83.8205 17.3117 83.9567 17.5304 84.1313 17.7158C84.3056 17.8948 84.5148 18.0351 84.7457 18.1278C84.9766 18.2204 85.224 18.2634 85.4722 18.2541C85.8696 18.2644 86.2619 18.1612 86.6038 17.9561C86.9508 17.7364 87.2701 17.475 87.5548 17.1776L87.5738 14.0538Z" fill="#EE7624"></path>
<path d="M104.253 19.4748C104.269 19.5273 104.288 19.5786 104.31 19.6286C104.318 19.6731 104.318 19.7187 104.31 19.7632C104.31 19.9042 104.177 20.0483 103.911 20.1957C103.611 20.3599 103.291 20.4858 102.96 20.5706C102.57 20.6667 102.133 20.7532 101.676 20.8205C101.25 20.9039 100.817 20.9552 100.383 20.9743C99.522 20.993 98.6648 20.853 97.8535 20.561C97.2183 20.3183 96.6343 19.9563 96.1323 19.4941C95.6821 19.0791 95.3114 18.5838 95.0386 18.0331C94.7758 17.5233 94.5716 16.9847 94.43 16.428C94.309 15.9358 94.2294 15.4342 94.1923 14.9285C94.1923 14.4576 94.1923 14.0635 94.1923 13.7655C94.1402 12.4216 94.3704 11.0818 94.8675 9.8343C95.2385 8.92926 95.8074 8.12092 96.5316 7.46986C97.1527 6.92211 97.887 6.52145 98.6808 6.2972C99.3783 6.10371 100.097 6.00035 100.82 5.98962C101.115 5.98962 101.458 5.98963 101.857 6.05691C102.237 6.10316 102.612 6.18029 102.979 6.28758C103.312 6.37007 103.632 6.49952 103.93 6.67207C104.035 6.71948 104.126 6.79434 104.193 6.88896C104.259 6.98358 104.3 7.09452 104.31 7.21033V11.055C104.31 11.2665 104.263 11.3818 104.168 11.4202H103.911H101.895H101.638C101.543 11.4202 101.496 11.2665 101.496 11.055V8.95966C101.243 8.88177 100.98 8.84288 100.716 8.84432C100.343 8.84136 99.9741 8.91662 99.6318 9.06537C99.2855 9.2432 98.9931 9.51217 98.7854 9.84392C98.5194 10.2916 98.3328 10.7828 98.2338 11.2953C98.0799 12.0475 98.0097 12.8149 98.0247 13.5829C98.0247 13.977 98.0247 14.4383 98.0247 14.9573C98.0472 15.4671 98.1499 15.97 98.329 16.4471C98.509 16.9171 98.8034 17.3336 99.1848 17.6582C99.67 18.0202 100.266 18.1972 100.868 18.158C101.294 18.1642 101.718 18.0993 102.123 17.9658C102.395 17.8813 102.661 17.7818 102.922 17.6678C103.008 17.6458 103.091 17.6135 103.169 17.5718C103.226 17.5589 103.284 17.5589 103.34 17.5718C103.417 17.5718 103.474 17.5717 103.493 17.6294C103.512 17.6871 103.493 17.6967 103.493 17.7159L104.253 19.4748Z" fill="#EE7624"></path>
<path d="M108.713 9.25753V11.449C108.713 11.6316 108.713 11.747 108.628 11.7854C108.534 11.8326 108.428 11.8526 108.324 11.8431H106.669C106.548 11.8597 106.425 11.8287 106.327 11.7565C106.281 11.661 106.261 11.5548 106.269 11.449V6.8258C106.269 6.63357 106.298 6.51818 106.355 6.47974C106.452 6.43174 106.561 6.41178 106.669 6.42207H117.415C117.522 6.41275 117.631 6.43266 117.728 6.47974C117.786 6.51818 117.814 6.63357 117.814 6.8258V11.449C117.814 11.6316 117.814 11.747 117.728 11.7854C117.631 11.8325 117.522 11.8524 117.415 11.8431H115.703C115.522 11.8431 115.399 11.843 115.37 11.7565C115.324 11.661 115.305 11.5548 115.313 11.449V9.25753H113.792V17.8023H115.598C115.817 17.8023 115.95 17.8023 115.969 17.9369C115.98 18.0263 115.98 18.1166 115.969 18.206V20.013C115.979 20.1024 115.979 20.1927 115.969 20.2822C115.969 20.3687 115.817 20.4167 115.598 20.4167H108.447C108.36 20.4127 108.273 20.3965 108.19 20.3686C108.095 20.3686 108.048 20.2245 108.048 20.013V18.1772C108.045 18.0883 108.061 17.9998 108.095 17.9177C108.095 17.8215 108.238 17.7735 108.447 17.7735H110.244V9.22872L108.713 9.25753Z" fill="#EE7624"></path>
<path d="M127.4 9.34416H125.013V9.6325C125.013 9.98813 125.013 10.4207 125.013 10.9012C125.013 11.3818 125.013 11.9104 124.937 12.4391C124.861 12.9677 124.851 13.4772 124.804 13.9674C124.756 14.4576 124.709 14.9285 124.652 15.2457C124.525 16.1318 124.305 17.0018 123.995 17.8409C123.769 18.4256 123.447 18.9681 123.044 19.446C122.752 19.8099 122.389 20.1107 121.979 20.3303C121.632 20.5063 121.265 20.6386 120.886 20.7244C120.677 20.7244 120.458 20.8013 120.211 20.8493C119.954 20.9006 119.693 20.9264 119.431 20.9262C119.312 20.9222 119.193 20.9028 119.079 20.8686C118.936 20.8686 118.841 20.7148 118.813 20.4937L118.584 18.3983C118.584 18.1388 118.584 17.9946 118.68 17.9658H119.012H119.26C119.58 17.9351 119.888 17.8227 120.154 17.639C120.385 17.4723 120.588 17.2676 120.753 17.0335C120.889 16.8116 121.004 16.5766 121.095 16.3318C121.174 16.1328 121.234 15.9269 121.276 15.7167C121.333 15.4572 121.399 15.14 121.466 14.7555C121.534 14.3804 121.581 14.0017 121.609 13.6213C121.609 13.2272 121.694 12.8235 121.732 12.4295C121.77 12.0354 121.789 11.6702 121.789 11.3242V9.11343H120.363C120.275 9.10942 120.189 9.09326 120.106 9.06538C120.02 9.06538 119.973 8.92121 119.973 8.70975V6.87395C119.964 6.78765 119.964 6.70071 119.973 6.61441C119.973 6.5183 120.125 6.47021 120.363 6.47021H130.49C130.728 6.47021 130.842 6.47022 130.861 6.59517C130.872 6.68779 130.872 6.78133 130.861 6.87395V17.8024H132.297C132.516 17.8024 132.64 17.8024 132.659 17.937C132.67 18.0264 132.67 18.1167 132.659 18.2061V20.0131C132.668 20.1025 132.668 20.1928 132.659 20.2823C132.659 20.3688 132.516 20.4168 132.297 20.4168H126.202C126.114 20.4128 126.028 20.3966 125.945 20.3687C125.85 20.3687 125.812 20.2246 125.812 20.0131V18.1773C125.799 18.0913 125.799 18.0038 125.812 17.9178C125.812 17.8216 125.964 17.7736 126.164 17.7736H127.257L127.4 9.34416Z" fill="#EE7624"></path>
<path d="M147.37 17.8024C147.598 17.8024 147.722 17.8024 147.731 17.937C147.747 18.026 147.747 18.1171 147.731 18.2061V20.0131C147.746 20.1022 147.746 20.1931 147.731 20.2822C147.731 20.3687 147.598 20.4071 147.37 20.4071H142.767C142.682 20.4197 142.596 20.4197 142.51 20.4071C142.425 20.4071 142.377 20.263 142.377 20.0515V15.2457C142.377 14.7074 142.377 14.1115 142.377 13.4771C142.377 12.8428 142.425 12.2756 142.472 11.7566H142.358C142.206 12.1411 142.082 12.4487 141.978 12.7178C141.873 12.9869 141.788 13.1503 141.731 13.2945L141.55 13.6694C141.518 13.7572 141.477 13.841 141.426 13.9192L138.079 20.0131C138.003 20.1476 137.936 20.2438 137.898 20.3207C137.86 20.3975 137.737 20.4071 137.537 20.4071H134.96C134.878 20.4196 134.795 20.4196 134.713 20.4071C134.617 20.4071 134.57 20.263 134.57 20.0515V9.06535H133.134C133.05 9.06048 132.967 9.04433 132.887 9.0173C132.792 9.0173 132.744 8.87313 132.744 8.66168V6.82587C132.744 6.61441 132.792 6.49902 132.887 6.47018C132.969 6.45931 133.052 6.45931 133.134 6.47018H137.746C137.965 6.47018 138.088 6.47019 138.098 6.59514C138.118 6.68697 138.118 6.78209 138.098 6.87392V11.6798C138.098 12.2276 138.098 12.8235 138.098 13.4579C138.098 14.0923 138.098 14.6594 138.022 15.1688H138.136L138.507 14.2076C138.621 13.9673 138.707 13.7559 138.783 13.5925C138.859 13.4291 138.906 13.3041 138.954 13.2176C138.975 13.1352 139.011 13.0572 139.058 12.9869L142.434 6.80663C142.487 6.6996 142.547 6.59677 142.615 6.49905C142.663 6.43177 142.777 6.40295 142.967 6.40295H145.553C145.753 6.40295 145.877 6.40292 145.896 6.54709C145.907 6.6332 145.907 6.72052 145.896 6.80663V17.8024H147.37Z" fill="#EE7624"></path>
<path d="M148.159 9.06535C148.075 9.06248 147.991 9.04628 147.912 9.0173C147.817 9.0173 147.769 8.87313 147.769 8.66167V6.82587C147.769 6.61441 147.769 6.49902 147.912 6.47018C147.994 6.45737 148.077 6.45737 148.159 6.47018H154.816C155.508 6.47349 156.2 6.51521 156.889 6.59514C157.538 6.66414 158.163 6.88463 158.715 7.23916C159.136 7.50978 159.482 7.88334 159.723 8.32529C159.993 8.81535 160.131 9.36913 160.122 9.93042C160.128 10.6106 159.94 11.278 159.58 11.8528C159.208 12.4689 158.621 12.9216 157.935 13.1215V13.208C158.705 13.3059 159.411 13.6916 159.915 14.2892C160.418 14.8869 160.682 15.6532 160.654 16.4376C160.658 17.0054 160.533 17.5665 160.289 18.0779C160.046 18.5894 159.689 19.0376 159.247 19.3883C158.962 19.6317 158.641 19.8295 158.296 19.9746C157.601 20.247 156.871 20.4185 156.128 20.484C155.776 20.484 155.443 20.484 155.12 20.484H150.013C149.906 20.4955 149.798 20.4789 149.699 20.436C149.634 20.3336 149.607 20.2108 149.623 20.09V9.06535H148.159ZM153.151 11.9489H154.787C155.017 11.9432 155.245 11.9207 155.472 11.8816C155.728 11.8314 155.967 11.7156 156.166 11.5452C156.33 11.4099 156.461 11.238 156.549 11.0428C156.636 10.8477 156.678 10.6347 156.67 10.4206C156.658 10.2272 156.619 10.0364 156.556 9.85351C156.472 9.63364 156.327 9.44324 156.137 9.30564C155.948 9.15966 155.726 9.06385 155.491 9.02692C155.268 8.98392 155.042 8.9646 154.816 8.96926H153.151V11.9489ZM153.151 17.8793H154.901C155.283 17.8928 155.663 17.8341 156.023 17.7062C156.27 17.6148 156.494 17.4706 156.679 17.2833C156.831 17.127 156.942 16.9357 157.003 16.7259C157.058 16.5355 157.087 16.3381 157.088 16.1395C157.117 15.7986 157.026 15.4585 156.832 15.1784C156.687 14.9617 156.486 14.7889 156.252 14.6786C156.034 14.5704 155.799 14.5052 155.557 14.4864H155.015H153.113L153.151 17.8793Z" fill="#EE7624"></path>
<path d="M175.128 13.9961C174.908 13.3876 174.53 12.8499 174.034 12.439C173.439 11.928 172.715 11.5951 171.942 11.4779C171.174 11.3619 170.398 11.304 169.622 11.3049H168.053V6.82585C168.069 6.74014 168.069 6.65203 168.053 6.56632C168.053 6.4702 167.91 6.42212 167.71 6.42212H163.108C162.899 6.42212 162.775 6.42214 162.756 6.56632C162.74 6.65203 162.74 6.74014 162.756 6.82585V8.66166C162.756 8.87312 162.756 8.98845 162.899 9.01729C162.982 9.04516 163.068 9.06132 163.155 9.06533H164.582V17.8024H163.155C162.927 17.8024 162.803 17.8024 162.784 17.937C162.774 18.0263 162.774 18.1167 162.784 18.2061V20.0131C162.775 20.1025 162.775 20.1928 162.784 20.2822C162.784 20.3687 162.927 20.4167 163.155 20.4167H169.327H170.506C170.921 20.3977 171.334 20.3496 171.742 20.2726C172.15 20.2027 172.549 20.0866 172.931 19.9265C173.324 19.7792 173.69 19.5682 174.015 19.3018C174.329 19.0698 174.599 18.7834 174.814 18.456C175.005 18.1557 175.158 17.8329 175.271 17.4948C175.372 17.1834 175.436 16.8606 175.461 16.5336C175.461 16.2261 175.461 15.9473 175.461 15.6782C175.462 15.08 175.366 14.4857 175.175 13.9192L175.128 13.9961ZM171.657 16.8027C171.512 17.0246 171.312 17.2038 171.077 17.3218C170.864 17.4323 170.631 17.4977 170.392 17.514H169.812H168.1V14.0538H170.069C170.244 14.0584 170.419 14.0777 170.592 14.1115C170.802 14.1519 171.004 14.2266 171.191 14.3326C171.391 14.4639 171.558 14.6419 171.676 14.8516C171.845 15.1416 171.921 15.4772 171.895 15.8128C171.912 16.1499 171.829 16.4847 171.657 16.7739" fill="#EE7624"></path>
<path d="M175.804 9.06533C175.719 9.06246 175.636 9.04626 175.556 9.01729C175.452 9.01729 175.414 8.87312 175.414 8.67128V6.82585C175.401 6.73981 175.401 6.65236 175.414 6.56632C175.414 6.4702 175.566 6.42212 175.766 6.42212H182.584C182.812 6.42212 182.936 6.42212 182.955 6.54708C182.965 6.63969 182.965 6.73323 182.955 6.82585V8.67128C182.965 8.7575 182.965 8.84453 182.955 8.93075C182.955 9.01726 182.812 9.06533 182.584 9.06533H181.214V17.8024H182.641C182.869 17.8024 182.993 17.8024 183.012 17.937C183.023 18.0263 183.023 18.1167 183.012 18.2061V20.0131C183.022 20.1025 183.022 20.1928 183.012 20.2822C183.012 20.3687 182.869 20.4167 182.641 20.4167H178.038C177.951 20.4114 177.865 20.3953 177.782 20.3687C177.696 20.3687 177.648 20.2245 177.648 20.0131V9.06533H175.804Z" fill="#EE7624"></path>
<path d="M199.625 17.8023C199.853 17.8023 199.977 17.8023 199.996 17.9369C200.001 18.0265 200.001 18.1164 199.996 18.206V20.013C200.001 20.1026 200.001 20.1925 199.996 20.2821C199.996 20.3686 199.853 20.4167 199.625 20.4167H195.022C194.935 20.4127 194.848 20.3965 194.765 20.3686C194.67 20.3686 194.632 20.2244 194.632 20.013V15.2071C194.632 14.6689 194.632 14.0729 194.632 13.4386C194.632 12.8042 194.632 12.2371 194.727 11.7181H194.613C194.461 12.1026 194.337 12.4101 194.233 12.6793L193.976 13.2559L193.805 13.6308C193.769 13.7169 193.728 13.8004 193.681 13.8807L190.334 20.013L190.153 20.3206C190.052 20.3958 189.926 20.4301 189.801 20.4167H187.215C187.13 20.4138 187.047 20.3976 186.968 20.3686C186.872 20.3686 186.825 20.2244 186.825 20.013V9.06526H185.389C185.305 9.06151 185.221 9.04533 185.142 9.01722C185.047 9.01722 184.999 8.90189 184.999 8.67121V6.82578C184.999 6.61433 184.999 6.49893 185.142 6.4701C185.224 6.45814 185.307 6.45814 185.389 6.4701H190.001C190.22 6.4701 190.343 6.4701 190.362 6.59505C190.373 6.68767 190.373 6.78121 190.362 6.87383V11.6797C190.362 12.2275 190.362 12.8234 190.362 13.4578C190.362 14.0922 190.362 14.6593 190.267 15.1687H190.391C190.534 14.7939 190.667 14.4863 190.762 14.2076C190.857 13.9288 190.962 13.7558 191.028 13.5924C191.092 13.4708 191.149 13.3457 191.199 13.2175C191.233 13.1387 191.272 13.0617 191.313 12.9868L194.68 6.80654C194.765 6.67198 194.822 6.56624 194.87 6.49896C194.918 6.43168 195.032 6.40287 195.212 6.40287H197.799C198.008 6.40287 198.122 6.40283 198.151 6.54701C198.163 6.63305 198.163 6.7205 198.151 6.80654V17.8023H199.625ZM196.23 0.21294C196.265 0.215482 196.298 0.226401 196.328 0.244795C196.358 0.263188 196.383 0.288506 196.401 0.318654C196.46 0.42008 196.487 0.537638 196.477 0.655039C196.476 1.00671 196.412 1.35527 196.287 1.6835C196.023 2.41826 195.528 3.04588 194.879 3.47126C194.179 3.93286 193.357 4.17068 192.521 4.15371C192.141 4.15442 191.761 4.11251 191.389 4.02875C191.007 3.94531 190.641 3.79919 190.305 3.59621C189.952 3.38579 189.631 3.1234 189.354 2.81767C189.063 2.47533 188.837 2.08092 188.689 1.65469C188.568 1.3482 188.501 1.0231 188.489 0.693524C188.481 0.575036 188.511 0.457142 188.575 0.35708C188.592 0.328157 188.615 0.3036 188.643 0.285274C188.671 0.266947 188.703 0.255353 188.736 0.251365L190.458 0.0206941H190.553H190.724C190.847 0.0206941 190.933 0.0975781 190.99 0.251365C191.047 0.405152 191.076 0.549299 191.114 0.703086C191.193 1.03186 191.357 1.33362 191.589 1.57778C191.717 1.69528 191.867 1.78424 192.031 1.8389C192.195 1.89356 192.368 1.91269 192.54 1.89498C192.736 1.9137 192.933 1.88606 193.116 1.81432C193.299 1.74258 193.464 1.62866 193.596 1.48163C193.788 1.24089 193.936 0.967523 194.033 0.674282C194.033 0.539718 194.1 0.424392 194.109 0.328275C194.13 0.246573 194.169 0.170812 194.223 0.107166C194.299 0.0302729 194.366 -0.00815977 194.414 0.00145191H194.594L196.23 0.21294Z" fill="#EE7624"></path>
<path d="M77.7692 17.6581C77.9974 17.6581 78.1115 17.6581 78.1401 17.7735C78.1451 17.8631 78.1451 17.953 78.1401 18.0426V19.8977C78.1455 19.9841 78.1455 20.0708 78.1401 20.1572C78.1401 20.2437 77.9974 20.2917 77.7692 20.2917H70.637C70.5551 20.3045 70.4717 20.3045 70.3898 20.2917C70.2947 20.2917 70.2376 20.1476 70.2376 19.9457V18.0907C70.2404 18.0044 70.2598 17.9195 70.2947 17.8408C70.2947 17.7446 70.4278 17.7062 70.637 17.7062H72.8052V15.1495C72.3722 15.3002 71.9308 15.4254 71.4834 15.5244C70.9407 15.6499 70.3854 15.7112 69.8287 15.707C69.3693 15.7205 68.9106 15.6621 68.4689 15.534C68.1375 15.4501 67.818 15.3241 67.5179 15.1591C67.3082 15.0453 67.1106 14.9101 66.9283 14.7554C66.8267 14.6687 66.7371 14.5684 66.662 14.4574C66.3032 14.0368 66.075 13.5186 66.0059 12.9676C65.9392 12.4545 65.9043 11.9377 65.9013 11.4202V8.95957H64.4748C64.3894 8.96754 64.3035 8.96754 64.2181 8.95957C64.123 8.95957 64.085 8.80579 64.085 8.60395V6.7489C64.0726 6.66607 64.0726 6.58182 64.085 6.49899C64.085 6.40287 64.2276 6.35479 64.4368 6.35479H69.0014C69.2201 6.35479 69.3438 6.3548 69.3723 6.48936C69.377 6.5758 69.377 6.66246 69.3723 6.7489V11.3625C69.373 11.5667 69.3985 11.7701 69.4483 11.968C69.514 12.1767 69.6482 12.3564 69.8287 12.4774C69.9972 12.6274 70.2055 12.7244 70.4278 12.7562C70.6344 12.7983 70.8448 12.8177 71.0554 12.8139C71.2784 12.8115 71.501 12.7922 71.7211 12.7562C72.0713 12.7059 72.4096 12.5919 72.7196 12.4198V8.90191H71.6165C71.5343 8.90909 71.4515 8.90909 71.3693 8.90191C71.2742 8.90191 71.2267 8.74812 71.2267 8.54628V6.69123C71.2189 6.60812 71.2189 6.52443 71.2267 6.44132C71.2267 6.3452 71.3788 6.29712 71.5785 6.29712H77.6741C77.9023 6.29712 78.0165 6.29713 78.045 6.4317C78.0497 6.51814 78.0497 6.60479 78.045 6.69123V8.47899C78.0501 8.56863 78.0501 8.65851 78.045 8.74815C78.045 8.83465 77.9023 8.87304 77.6741 8.87304H76.2382V17.6197L77.7692 17.6581Z" fill="#EE7624"></path>
<path d="M52.6258 25.4917C52.5438 25.5036 52.4605 25.5036 52.3785 25.4917C52.2834 25.4917 52.2358 25.3476 52.2358 25.1361V23.2906C52.2358 23.0792 52.2359 22.9543 52.3785 22.9254C52.4605 22.9136 52.5438 22.9136 52.6258 22.9254H59.2825C59.9785 22.9239 60.674 22.9656 61.365 23.0503C62.0167 23.1239 62.6438 23.344 63.2004 23.6944C63.6203 23.9734 63.969 24.3488 64.2179 24.79C64.488 25.2835 64.6226 25.8411 64.6078 26.4049C64.6134 27.0836 64.4288 27.7501 64.0753 28.3272C63.6956 28.9463 63.1029 29.4016 62.4111 29.6055V29.6248C63.1849 29.7226 63.8946 30.1089 64.4012 30.7081C64.9079 31.3073 65.1748 32.0761 65.1499 32.8639C65.1538 33.4468 65.0236 34.0227 64.7694 34.5459C64.5276 35.0481 64.1765 35.4884 63.7424 35.8339C63.4556 36.0755 63.1352 36.273 62.7914 36.4202C62.0989 36.6911 61.3724 36.8625 60.6328 36.9296C60.2714 36.9296 59.9291 36.9296 59.6058 36.9296H54.4801C54.3764 36.9372 54.2723 36.9207 54.1758 36.8816C54.1092 36.8816 54.0902 36.7182 54.0902 36.5356V25.4917H52.6258ZM57.6468 28.3752H59.2825C59.5157 28.3709 59.748 28.3451 59.9766 28.2983C60.2291 28.2515 60.4651 28.1389 60.6613 27.9716C60.8287 27.8363 60.9624 27.6632 61.0516 27.4662C61.1408 27.2692 61.1831 27.0538 61.1749 26.8373C61.1626 26.6471 61.1242 26.4595 61.0607 26.2799C60.9792 26.0535 60.8296 25.8585 60.6328 25.7224C60.4425 25.5785 60.2207 25.4829 59.9862 25.4437C59.7631 25.4054 59.5372 25.3861 59.311 25.386H57.6468V28.3752ZM57.6468 34.3345H59.3966C59.7781 34.3499 60.159 34.2911 60.5187 34.1614C60.771 34.0718 60.999 33.9237 61.1844 33.729C61.3376 33.5742 61.4489 33.3822 61.5077 33.1715C61.5633 32.9843 61.5921 32.7902 61.5933 32.5948C61.613 32.2962 61.5426 31.9985 61.3915 31.7411C61.2404 31.4837 61.0157 31.2787 60.7469 31.153C60.531 31.0522 60.2992 30.9904 60.0622 30.9704H59.5012H57.5993L57.6468 34.3345Z" fill="#EE7624"></path>
<path d="M70.9889 28.4617C71.2908 28.459 71.5924 28.4397 71.8923 28.404C72.238 28.3802 72.569 28.253 72.8432 28.0388C73.034 27.868 73.1863 27.6577 73.2897 27.4222C73.393 27.1867 73.4451 26.9315 73.4423 26.6739C73.446 26.4423 73.3933 26.2134 73.2888 26.0072C73.1843 25.801 73.0313 25.624 72.8432 25.4917C72.6396 25.3507 72.41 25.2526 72.1681 25.2034C71.9365 25.1551 71.7008 25.1293 71.4644 25.1265C71.1255 25.1238 70.7874 25.1592 70.4564 25.2322C70.2235 25.2735 69.9944 25.3346 69.7716 25.4148V26.6066C69.7716 26.8181 69.7716 26.9334 69.6385 26.9623C69.5536 26.9782 69.4666 26.9782 69.3818 26.9623H67.6606C67.5758 26.9789 67.4886 26.9789 67.4038 26.9623C67.3182 26.9623 67.2611 26.8181 67.2611 26.6066V23.5886C67.2619 23.4864 67.2919 23.3866 67.3476 23.3013C67.4033 23.216 67.4823 23.1489 67.5749 23.108C67.7564 23.003 67.9474 22.9162 68.1455 22.8485C68.7325 22.6538 69.3381 22.5217 69.9523 22.4544C70.4161 22.3971 70.8829 22.3682 71.3502 22.3679H72.2251C72.5675 22.3679 72.9193 22.4352 73.2902 22.5025C73.6708 22.5702 74.0459 22.6666 74.4123 22.7908C74.7716 22.9106 75.1089 23.0891 75.4108 23.3195C75.8209 23.6324 76.1693 24.0204 76.4379 24.4633C76.7666 25.0093 76.9287 25.6412 76.9038 26.2799C76.9131 26.9661 76.7103 27.6381 76.3238 28.2022C75.9322 28.7855 75.3801 29.24 74.7357 29.5094V29.6247C75.1195 29.7029 75.4865 29.8494 75.8197 30.0573C76.061 30.2065 76.2817 30.3875 76.4759 30.5955C76.7524 30.8714 76.975 31.1975 77.132 31.5567C77.264 31.903 77.3286 32.2718 77.3222 32.6428C77.3223 33.1641 77.2454 33.6824 77.094 34.1807C76.9083 34.7434 76.6032 35.2584 76.2001 35.6897C75.6924 36.1917 75.0912 36.587 74.4314 36.8527C73.4607 37.2389 72.421 37.4156 71.3788 37.3717C70.8206 37.3818 70.2629 37.3334 69.7146 37.2275C69.2296 37.1314 68.7637 37.0161 68.4308 36.9104C68.1265 36.8021 67.8308 36.6703 67.5464 36.5163L67.0709 36.228C66.9588 36.1548 66.8537 36.0711 66.7571 35.978C66.7095 35.9286 66.6722 35.8699 66.6477 35.8054C66.6232 35.741 66.6119 35.6722 66.6145 35.6032C66.6057 35.562 66.6057 35.5195 66.6145 35.4783L66.6715 35.3437L67.4893 33.7481C67.5099 33.6805 67.5516 33.6215 67.6082 33.5799C67.6648 33.5383 67.7332 33.5164 67.8032 33.5175C67.9527 33.5345 68.0961 33.5873 68.2216 33.6713L69.3342 34.2672C69.9101 34.5164 70.5342 34.6313 71.1601 34.6036C71.4999 34.6041 71.8385 34.5622 72.1681 34.4786C72.5257 34.3905 72.8538 34.2081 73.119 33.95C73.3491 33.7604 73.5125 33.5008 73.585 33.2099C73.6236 33.0297 73.6459 32.8463 73.6516 32.662C73.6501 32.4092 73.5846 32.1611 73.4614 31.9411C73.3466 31.7018 73.169 31.499 72.9479 31.3548C72.6623 31.1684 72.3357 31.0562 71.9969 31.0281C71.626 31.0281 71.2932 31.0281 71.046 31.0281H70.599C70.5456 31.0358 70.4911 31.031 70.4398 31.0141C70.3885 30.9972 70.3418 30.9686 70.3032 30.9305C70.2646 30.8924 70.2351 30.8459 70.2172 30.7945C70.1992 30.743 70.1932 30.6881 70.1996 30.6339V28.8558C70.1932 28.8017 70.1992 28.7467 70.2172 28.6953C70.2351 28.6439 70.2646 28.5973 70.3032 28.5593C70.3418 28.5212 70.3885 28.4926 70.4398 28.4757C70.4911 28.4587 70.5456 28.4539 70.599 28.4617H70.9889Z" fill="#EE7624"></path>
<path d="M79.4618 25.4917C79.3799 25.505 79.2964 25.505 79.2145 25.4917C79.1194 25.4917 79.0719 25.3475 79.0719 25.1361V23.2906C79.0587 23.2046 79.0587 23.1171 79.0719 23.0311C79.0719 22.935 79.2241 22.8869 79.4238 22.8869H89.4659C89.7797 22.8869 89.9414 22.9638 89.9414 23.108V27.7024C89.9414 27.9138 89.9413 28.0292 89.7987 28.058C89.7167 28.0705 89.6334 28.0705 89.5514 28.058H87.7446C87.6595 28.0706 87.573 28.0706 87.4879 28.058C87.3928 28.058 87.3547 27.9138 87.3547 27.7024V25.78H84.4448V34.3536H86.166C86.3943 34.3536 86.5084 34.3536 86.5274 34.4786C86.5414 34.5677 86.5414 34.6586 86.5274 34.7477V36.6028C86.5419 36.6919 86.5419 36.7828 86.5274 36.8719C86.5274 36.9584 86.3943 36.9968 86.166 36.9968H79.4618C79.3799 37.0101 79.2964 37.0101 79.2145 36.9968C79.1194 36.9968 79.0719 36.8431 79.0719 36.6412V34.7862C79.0594 34.7001 79.0594 34.6127 79.0719 34.5266C79.0719 34.4401 79.2241 34.3921 79.4238 34.3921H80.8692V25.4917H79.4618Z" fill="#EE7624"></path>
<path d="M99.337 25.78H96.9406V26.0587C96.9406 26.4239 96.9406 26.8469 96.9406 27.3467C96.9406 27.8465 96.8931 28.3078 96.8645 28.8749C96.836 29.442 96.7789 29.9226 96.7314 30.4224C96.6838 30.9223 96.6363 31.3355 96.5792 31.7008C96.454 32.5914 96.2307 33.465 95.9136 34.3055C95.6886 34.8911 95.3671 35.4338 94.9626 35.9107C94.6698 36.2784 94.3036 36.5797 93.888 36.795C93.5417 36.9753 93.1743 37.1109 92.7945 37.1987L92.1097 37.3236C91.8497 37.3749 91.5854 37.4006 91.3204 37.4005C91.2004 37.3965 91.0818 37.3738 90.9686 37.3332C90.8945 37.307 90.8299 37.2592 90.7825 37.196C90.7351 37.1327 90.7072 37.0568 90.7023 36.9776L90.4741 34.863C90.4741 34.6035 90.4741 34.4593 90.5787 34.4305H90.8735H91.1208C91.4625 34.4097 91.7918 34.2933 92.0717 34.0941C92.303 33.9262 92.5027 33.7179 92.6613 33.479C92.8083 33.265 92.9266 33.0322 93.0132 32.7869C93.0875 32.5863 93.1478 32.3808 93.1938 32.1718C93.2509 31.9123 93.308 31.5951 93.3745 31.2106C93.4511 30.8398 93.5019 30.464 93.5267 30.086C93.5267 29.6727 93.6122 29.2786 93.6408 28.8749C93.6943 28.4863 93.723 28.0947 93.7264 27.7023L93.7834 25.4724H92.3475C92.2655 25.4849 92.1822 25.4849 92.1002 25.4724C92.0051 25.4724 91.9576 25.3282 91.9576 25.1168V23.2713C91.9485 23.1851 91.9485 23.0981 91.9576 23.0118C91.9576 22.9157 92.1097 22.8676 92.357 22.8676H102.542C102.76 22.8676 102.884 22.8676 102.903 22.9926C102.913 23.0852 102.913 23.1787 102.903 23.2713V34.2959H104.349C104.577 34.2959 104.7 34.2959 104.719 34.4209C104.724 34.5105 104.724 34.6004 104.719 34.69V36.5451C104.724 36.6347 104.724 36.7245 104.719 36.8142C104.719 36.9007 104.577 36.9391 104.349 36.9391H98.2339C98.1488 36.9518 98.0623 36.9518 97.9771 36.9391C97.882 36.9391 97.8345 36.7854 97.8345 36.5835V34.7285C97.8229 34.6424 97.8229 34.555 97.8345 34.4689C97.8345 34.3824 97.9772 34.3344 98.1864 34.3344H99.28L99.337 25.78Z" fill="#EE7624"></path>
<path d="M119.554 34.2768C119.754 34.2768 119.868 34.2767 119.897 34.4113C119.924 34.4952 119.94 34.5825 119.944 34.6708V36.5259C119.944 36.7277 119.897 36.8527 119.802 36.8815C119.72 36.8933 119.636 36.8933 119.554 36.8815H114.923C114.704 36.8815 114.581 36.8815 114.562 36.7565C114.552 36.6671 114.552 36.5769 114.562 36.4875V31.7297H113.211C113.001 31.7027 112.788 31.7186 112.583 31.7764C112.379 31.8341 112.189 31.9326 112.023 32.066C111.786 32.3748 111.629 32.7381 111.566 33.1234L111.233 34.7477C111.165 35.1145 111.04 35.4681 110.863 35.7954C110.734 36.0392 110.571 36.2627 110.378 36.4586C110.207 36.626 110.007 36.7597 109.788 36.8527C109.574 36.9509 109.351 37.0281 109.122 37.0834C108.754 37.1917 108.379 37.2752 108 37.3333H107.458C107.154 37.3333 106.973 37.3333 106.916 37.1891L106.773 36.9104L106.193 35.0745C106.098 34.815 106.098 34.6516 106.193 34.5747C106.291 34.5243 106.393 34.4825 106.498 34.4498L107.116 34.3344C107.236 34.3221 107.353 34.284 107.458 34.2227C107.563 34.1614 107.654 34.0783 107.724 33.9788C107.874 33.7627 107.992 33.5265 108.076 33.2771L108.447 32.316C108.562 31.9804 108.712 31.6582 108.894 31.3548C109.189 30.9312 109.613 30.6171 110.102 30.4609V30.3648C109.739 30.2914 109.389 30.1617 109.065 29.9803C108.708 29.8074 108.386 29.5696 108.114 29.2787C107.836 28.9845 107.616 28.6385 107.468 28.2599C107.302 27.8248 107.221 27.3612 107.23 26.895C107.237 26.5128 107.285 26.1326 107.373 25.7608C107.48 25.2544 107.708 24.7825 108.038 24.3863C108.453 23.8918 108.978 23.5033 109.569 23.2521C110.442 22.8877 111.383 22.7204 112.327 22.7619H117.719C117.928 22.7619 118.042 22.762 118.071 22.9061C118.084 22.9921 118.084 23.0797 118.071 23.1657V34.1902L119.554 34.2768ZM114.533 25.7031H112.403C112.165 25.7194 111.93 25.7746 111.709 25.8666C111.465 25.9783 111.25 26.1461 111.081 26.3567C110.877 26.6328 110.779 26.9743 110.806 27.3179C110.812 27.4774 110.838 27.6356 110.882 27.7889C110.934 27.9932 111.035 28.1812 111.176 28.3367C111.361 28.5323 111.589 28.6806 111.842 28.7692C112.217 28.8899 112.609 28.9452 113.002 28.9327H114.533V25.7031Z" fill="#EE7624"></path>
<path d="M122.027 36.92C121.837 36.92 121.732 36.92 121.694 36.8335C121.642 36.74 121.622 36.632 121.637 36.5259V34.6709C121.637 34.485 121.666 34.3697 121.723 34.3249C121.822 34.297 121.927 34.297 122.027 34.3249H123.035C123.344 33.7551 123.62 33.1678 123.862 32.5659C124.081 32.0084 124.233 31.6047 124.338 31.1914C124.444 30.8223 124.526 30.4467 124.585 30.0669C124.661 29.6344 124.728 29.1922 124.775 28.7405C124.823 28.2887 124.861 27.837 124.889 27.4044C124.918 26.9719 124.937 26.5586 124.937 26.1934V25.5398H123.606C123.524 25.5531 123.44 25.5531 123.358 25.5398C123.254 25.5398 123.206 25.3956 123.206 25.1841V23.3387C123.206 23.1273 123.206 23.0023 123.358 22.9735C123.44 22.9602 123.524 22.9602 123.606 22.9735H133.277C133.496 22.9735 133.619 22.9735 133.638 23.0984C133.648 23.191 133.648 23.2845 133.638 23.3771V34.4017H135.084C135.183 34.3757 135.288 34.3757 135.388 34.4017C135.445 34.453 135.474 34.5684 135.474 34.7478V36.6028C135.474 36.7887 135.445 36.904 135.388 36.9488C135.291 36.9862 135.187 37.0026 135.084 36.9969L122.027 36.92ZM130.091 25.7032H128.037V26.6067C128.037 26.9623 128.037 27.3852 127.989 27.837C127.942 28.2887 127.913 28.7982 127.856 29.2307C127.799 29.6632 127.695 30.1918 127.609 30.6532C127.521 31.1049 127.407 31.5511 127.267 31.9892C127.033 32.7078 126.74 33.4055 126.392 34.075H130.091V25.7032Z" fill="#EE7624"></path>
<path d="M18.2681 22.1084C18.2681 22.3487 18.2681 22.5986 18.2681 22.8485L25.9803 30.6436C26.2276 30.6436 26.4748 30.6436 26.7126 30.6436L18.2681 22.1084Z" fill="#4EBCBF"></path>
<path d="M18.5437 20.7435C18.4772 20.9454 18.4201 21.1568 18.3726 21.3683L27.3971 30.4802C27.6064 30.4393 27.8129 30.3846 28.0153 30.3167L18.5437 20.7435Z" fill="#4EBCBF"></path>
<path d="M18.9997 19.5709C18.9077 19.749 18.8251 19.9318 18.7524 20.1188L28.6329 30.0957C28.8136 30.0284 28.9943 29.9419 29.1749 29.8554L18.9997 19.5709Z" fill="#4EBCBF"></path>
<path d="M19.5519 18.5328C19.4473 18.6866 19.3522 18.8596 19.2476 19.0134L29.7081 29.5863C29.8691 29.4928 30.0246 29.3901 30.174 29.2787L19.5519 18.5328Z" fill="#4EBCBF"></path>
<path d="M18.2681 23.7327C18.2935 24.0567 18.3444 24.3781 18.4202 24.6939L24.1259 30.4609C24.4393 30.5375 24.7568 30.5953 25.0769 30.6339L18.2681 23.7327Z" fill="#4EBCBF"></path>
<path d="M20.5882 28.5098C21.2568 29.1521 22.0327 29.6695 22.8799 30.038L18.8193 25.9338C19.1802 26.7923 19.6926 27.5772 20.3314 28.2503L20.5882 28.5098Z" fill="#4EBCBF"></path>
<path d="M25.8372 15.2072C25.6565 15.2072 25.4758 15.2072 25.2856 15.2072L33.4353 23.4348C33.4448 23.249 33.4448 23.063 33.4353 22.8773C33.4353 22.8004 33.4353 22.7427 33.4353 22.6754L26.0464 15.2072H25.8372Z" fill="#4EBCBF"></path>
<path d="M27.9583 15.5436C27.646 15.4507 27.3284 15.3769 27.0073 15.3225L33.3977 21.7912C33.35 21.4663 33.2802 21.1451 33.1885 20.83L27.9583 15.5436Z" fill="#4EBCBF"></path>
<path d="M24.5343 15.3513C24.3251 15.3513 24.1064 15.4378 23.9067 15.4955L33.1975 24.8957C33.2596 24.6846 33.3073 24.4694 33.3402 24.2517L24.5343 15.3513Z" fill="#4EBCBF"></path>
<path d="M29.3652 16.1107L32.589 19.3691C31.8648 17.9787 30.7408 16.8427 29.3652 16.1107Z" fill="#4EBCBF"></path>
<path d="M23.2601 15.6974L22.7085 15.9184L32.7791 26.1069C32.8649 25.922 32.9412 25.7327 33.0074 25.5397L23.2601 15.6974Z" fill="#4EBCBF"></path>
<path d="M20.3221 17.6389C20.1909 17.7696 20.0671 17.9076 19.9512 18.0522L30.678 28.8845C30.821 28.7707 30.9575 28.6487 31.0869 28.5193L20.3221 17.6389Z" fill="#4EBCBF"></path>
<path d="M21.1775 16.8604C21.0253 16.9757 20.8922 17.0911 20.7495 17.216L31.5048 28.0868C31.6189 27.9427 31.7426 27.8081 31.8472 27.6543L21.1775 16.8604Z" fill="#4EBCBF"></path>
<path d="M22.1478 16.1683C21.9766 16.2645 21.815 16.3702 21.6533 16.4759L32.2089 27.1352C32.3135 26.9718 32.4086 26.8181 32.5037 26.6451L22.1478 16.1683Z" fill="#4EBCBF"></path>
<path fill-rule="evenodd" clip-rule="evenodd" d="M41.9088 12.6313C44.6914 15.3452 47.1519 18.3772 49.2407 21.6662C47.1833 25.3327 44.5897 28.664 41.5475 31.5471C40.6963 28.4518 39.4157 25.4941 37.7437 22.762C39.6546 19.6215 41.0544 16.1913 41.8898 12.6024" fill="#F7B31F"></path>
<path fill-rule="evenodd" clip-rule="evenodd" d="M37.7718 22.7909C39.6741 19.6471 41.0705 16.2179 41.9085 12.6313C33.6162 4.68248 24.2492 2.61596 15.4243 6.79704C26.2938 10.2669 33.4925 15.7647 37.7718 22.8101" fill="#009A4C"></path>
<path d="M31.0105 22.8966C31.0105 23.9308 30.707 24.9417 30.1386 25.8015C29.5702 26.6614 28.7622 27.3316 27.8169 27.7273C26.8717 28.1231 25.8315 28.2266 24.828 28.0249C23.8245 27.8231 22.9028 27.3252 22.1793 26.5939C21.4558 25.8627 20.9631 24.931 20.7635 23.9167C20.5639 22.9024 20.6663 21.8511 21.0579 20.8957C21.4494 19.9402 22.1125 19.1236 22.9632 18.5491C23.8139 17.9745 24.8141 17.6678 25.8372 17.6678C26.5166 17.6678 27.1893 17.8031 27.8169 18.0659C28.4446 18.3287 29.0149 18.7138 29.4953 19.1993C29.9757 19.6848 30.3567 20.2613 30.6167 20.8957C30.8767 21.53 31.0105 22.21 31.0105 22.8966Z" fill="#294D5B"></path>
<path fill-rule="evenodd" clip-rule="evenodd" d="M17.6497 38.0157C20.3816 37.0384 23.0228 35.8194 25.5426 34.3729C20.5281 31.5945 16.3015 27.564 13.2658 22.6658C13.2658 22.6658 13.2658 22.7523 13.3324 22.7908C11.351 26.0533 9.92083 29.6264 9.10059 33.3636C11.629 35.459 14.5356 37.0389 17.6592 38.0157" fill="#009A4C"></path>
<path fill-rule="evenodd" clip-rule="evenodd" d="M8.90094 11.1125C9.68963 15.2436 11.2033 19.1987 13.3705 22.7908C11.3891 26.0532 9.95892 29.6264 9.13868 33.3636C5.34982 30.1854 2.24052 26.2611 0 21.8296C2.42964 17.8373 5.42893 14.2293 8.90094 11.1222" fill="#F7B31F"></path>
<path fill-rule="evenodd" clip-rule="evenodd" d="M15.4244 6.79691L15.9665 6.547C13.4006 7.71084 11.0195 9.25265 8.90088 11.1222C9.68966 15.2502 11.2034 19.2021 13.3704 22.7908C16.4152 17.937 20.6211 13.9371 25.5997 11.1606C22.3775 9.3418 18.977 7.86653 15.453 6.75848" fill="#EE7624"></path>
<path fill-rule="evenodd" clip-rule="evenodd" d="M37.7624 22.81V22.7332C33.7494 29.2979 27.3019 34.5267 17.6401 38.0253C25.6092 40.4667 34.2439 38.3233 41.4997 31.5759C40.6547 28.4845 39.3736 25.5322 37.6958 22.81" fill="#EE7624"></path>
</svg>